<mxfile host="app.diagrams.net" modified="2023-10-18T08:31:23.632Z" agent="Mozilla/5.0 (Windows NT 10.0; Win64; x64) AppleWebKit/537.36 (KHTML, like Gecko) Chrome/118.0.0.0 Safari/537.36" etag="lbJwbaKHz0qhLaAZzcRq" version="22.0.4" type="device">
  <diagram name="1 oldal" id="nGCqteqD-nDwgnXsAt1D">
    <mxGraphModel dx="1434" dy="790" grid="1" gridSize="10" guides="1" tooltips="1" connect="1" arrows="1" fold="1" page="1" pageScale="1" pageWidth="827" pageHeight="1169" math="0" shadow="0">
      <root>
        <mxCell id="0" />
        <mxCell id="1" parent="0" />
        <mxCell id="mSly-e9Xf92uoEyUnU41-1" value="SPAWN" style="rounded=0;whiteSpace=wrap;html=1;" parent="1" vertex="1">
          <mxGeometry x="340" y="20" width="120" height="60" as="geometry" />
        </mxCell>
        <mxCell id="mSly-e9Xf92uoEyUnU41-2" value="STITCH" style="rounded=0;whiteSpace=wrap;html=1;" parent="1" vertex="1">
          <mxGeometry x="120" y="20" width="120" height="60" as="geometry" />
        </mxCell>
        <mxCell id="mSly-e9Xf92uoEyUnU41-5" value="" style="endArrow=classic;startArrow=classic;html=1;rounded=0;entryX=0;entryY=0.5;entryDx=0;entryDy=0;exitX=1;exitY=0.5;exitDx=0;exitDy=0;" parent="1" source="mSly-e9Xf92uoEyUnU41-2" target="mSly-e9Xf92uoEyUnU41-1" edge="1">
          <mxGeometry width="50" height="50" relative="1" as="geometry">
            <mxPoint x="210" y="430" as="sourcePoint" />
            <mxPoint x="260" y="380" as="targetPoint" />
          </mxGeometry>
        </mxCell>
        <mxCell id="mSly-e9Xf92uoEyUnU41-6" value="MAGDI ANYUS&lt;br&gt;JÓSNŐ" style="rounded=0;whiteSpace=wrap;html=1;" parent="1" vertex="1">
          <mxGeometry x="570" y="20" width="120" height="60" as="geometry" />
        </mxCell>
        <mxCell id="mSly-e9Xf92uoEyUnU41-7" value="" style="endArrow=classic;startArrow=classic;html=1;rounded=0;entryX=0;entryY=0.5;entryDx=0;entryDy=0;exitX=1;exitY=0.5;exitDx=0;exitDy=0;" parent="1" source="mSly-e9Xf92uoEyUnU41-1" target="mSly-e9Xf92uoEyUnU41-6" edge="1">
          <mxGeometry width="50" height="50" relative="1" as="geometry">
            <mxPoint x="210" y="400" as="sourcePoint" />
            <mxPoint x="260" y="350" as="targetPoint" />
          </mxGeometry>
        </mxCell>
        <mxCell id="mSly-e9Xf92uoEyUnU41-8" value="BOHÓC" style="rounded=0;whiteSpace=wrap;html=1;" parent="1" vertex="1">
          <mxGeometry x="340" y="140" width="120" height="60" as="geometry" />
        </mxCell>
        <mxCell id="mSly-e9Xf92uoEyUnU41-9" value="MICKEY EGÉR" style="rounded=0;whiteSpace=wrap;html=1;" parent="1" vertex="1">
          <mxGeometry x="120" y="140" width="120" height="60" as="geometry" />
        </mxCell>
        <mxCell id="mSly-e9Xf92uoEyUnU41-11" value="GYEREK &lt;br&gt;FELLÖKÉS" style="rounded=0;whiteSpace=wrap;html=1;" parent="1" vertex="1">
          <mxGeometry x="570" y="970" width="120" height="60" as="geometry" />
        </mxCell>
        <mxCell id="mSly-e9Xf92uoEyUnU41-13" value="" style="endArrow=classic;startArrow=classic;html=1;rounded=0;entryX=0.5;entryY=1;entryDx=0;entryDy=0;" parent="1" source="mSly-e9Xf92uoEyUnU41-9" target="mSly-e9Xf92uoEyUnU41-2" edge="1">
          <mxGeometry width="50" height="50" relative="1" as="geometry">
            <mxPoint x="210" y="400" as="sourcePoint" />
            <mxPoint x="260" y="350" as="targetPoint" />
          </mxGeometry>
        </mxCell>
        <mxCell id="mSly-e9Xf92uoEyUnU41-14" value="" style="endArrow=classic;startArrow=classic;html=1;rounded=0;exitX=0.5;exitY=0;exitDx=0;exitDy=0;" parent="1" source="mSly-e9Xf92uoEyUnU41-8" target="mSly-e9Xf92uoEyUnU41-1" edge="1">
          <mxGeometry width="50" height="50" relative="1" as="geometry">
            <mxPoint x="190" y="150" as="sourcePoint" />
            <mxPoint x="190" y="90" as="targetPoint" />
            <Array as="points">
              <mxPoint x="400" y="110" />
            </Array>
          </mxGeometry>
        </mxCell>
        <mxCell id="mSly-e9Xf92uoEyUnU41-15" value="" style="endArrow=classic;startArrow=classic;html=1;rounded=0;entryX=0.5;entryY=1;entryDx=0;entryDy=0;exitX=0.5;exitY=0;exitDx=0;exitDy=0;" parent="1" source="mSly-e9Xf92uoEyUnU41-55" target="mSly-e9Xf92uoEyUnU41-6" edge="1">
          <mxGeometry width="50" height="50" relative="1" as="geometry">
            <mxPoint x="660" y="130" as="sourcePoint" />
            <mxPoint x="410" y="90" as="targetPoint" />
            <Array as="points" />
          </mxGeometry>
        </mxCell>
        <mxCell id="JkZd_nxtKPJV1xH5oy3V-1" style="edgeStyle=orthogonalEdgeStyle;rounded=0;orthogonalLoop=1;jettySize=auto;html=1;exitX=1;exitY=0.5;exitDx=0;exitDy=0;entryX=0;entryY=0.5;entryDx=0;entryDy=0;" edge="1" parent="1" source="mSly-e9Xf92uoEyUnU41-16" target="mSly-e9Xf92uoEyUnU41-19">
          <mxGeometry relative="1" as="geometry" />
        </mxCell>
        <mxCell id="mSly-e9Xf92uoEyUnU41-16" value="SZÖKŐKÚT" style="rounded=0;whiteSpace=wrap;html=1;" parent="1" vertex="1">
          <mxGeometry x="340" y="260" width="120" height="60" as="geometry" />
        </mxCell>
        <mxCell id="mSly-e9Xf92uoEyUnU41-17" value="FOTÓZKODÁS" style="rounded=0;whiteSpace=wrap;html=1;" parent="1" vertex="1">
          <mxGeometry x="120" y="260" width="120" height="60" as="geometry" />
        </mxCell>
        <mxCell id="mSly-e9Xf92uoEyUnU41-18" value="" style="endArrow=classic;startArrow=classic;html=1;rounded=0;entryX=0;entryY=0.5;entryDx=0;entryDy=0;exitX=1;exitY=0.5;exitDx=0;exitDy=0;" parent="1" source="mSly-e9Xf92uoEyUnU41-17" target="mSly-e9Xf92uoEyUnU41-16" edge="1">
          <mxGeometry width="50" height="50" relative="1" as="geometry">
            <mxPoint x="210" y="670" as="sourcePoint" />
            <mxPoint x="260" y="620" as="targetPoint" />
          </mxGeometry>
        </mxCell>
        <mxCell id="mSly-e9Xf92uoEyUnU41-19" value="JÉGKÁSA&amp;nbsp;&lt;br&gt;AUTOMATA" style="rounded=0;whiteSpace=wrap;html=1;" parent="1" vertex="1">
          <mxGeometry x="570" y="260" width="120" height="60" as="geometry" />
        </mxCell>
        <mxCell id="mSly-e9Xf92uoEyUnU41-21" value="PLÜSS BOLT" style="rounded=0;whiteSpace=wrap;html=1;" parent="1" vertex="1">
          <mxGeometry x="340" y="380" width="120" height="60" as="geometry" />
        </mxCell>
        <mxCell id="mSly-e9Xf92uoEyUnU41-22" value="DONALD KACSA" style="rounded=0;whiteSpace=wrap;html=1;" parent="1" vertex="1">
          <mxGeometry x="120" y="380" width="120" height="60" as="geometry" />
        </mxCell>
        <mxCell id="mSly-e9Xf92uoEyUnU41-24" value="VARÁZS PÓNI" style="rounded=0;whiteSpace=wrap;html=1;" parent="1" vertex="1">
          <mxGeometry x="570" y="380" width="120" height="60" as="geometry" />
        </mxCell>
        <mxCell id="mSly-e9Xf92uoEyUnU41-25" value="" style="endArrow=classic;startArrow=classic;html=1;rounded=0;entryX=0;entryY=0.5;entryDx=0;entryDy=0;exitX=1;exitY=0.5;exitDx=0;exitDy=0;" parent="1" source="mSly-e9Xf92uoEyUnU41-21" target="mSly-e9Xf92uoEyUnU41-24" edge="1">
          <mxGeometry width="50" height="50" relative="1" as="geometry">
            <mxPoint x="210" y="760" as="sourcePoint" />
            <mxPoint x="260" y="710" as="targetPoint" />
          </mxGeometry>
        </mxCell>
        <mxCell id="mSly-e9Xf92uoEyUnU41-26" value="" style="endArrow=classic;startArrow=classic;html=1;rounded=0;entryX=0.5;entryY=1;entryDx=0;entryDy=0;" parent="1" source="mSly-e9Xf92uoEyUnU41-22" target="mSly-e9Xf92uoEyUnU41-17" edge="1">
          <mxGeometry width="50" height="50" relative="1" as="geometry">
            <mxPoint x="210" y="640" as="sourcePoint" />
            <mxPoint x="260" y="590" as="targetPoint" />
          </mxGeometry>
        </mxCell>
        <mxCell id="mSly-e9Xf92uoEyUnU41-27" value="" style="endArrow=classic;startArrow=classic;html=1;rounded=0;exitX=0.5;exitY=0;exitDx=0;exitDy=0;entryX=0.5;entryY=1;entryDx=0;entryDy=0;" parent="1" source="mSly-e9Xf92uoEyUnU41-24" target="mSly-e9Xf92uoEyUnU41-19" edge="1">
          <mxGeometry width="50" height="50" relative="1" as="geometry">
            <mxPoint x="410" y="390" as="sourcePoint" />
            <mxPoint x="410" y="330" as="targetPoint" />
            <Array as="points" />
          </mxGeometry>
        </mxCell>
        <mxCell id="mSly-e9Xf92uoEyUnU41-28" value="SZERENCSE&lt;br&gt;JÁTÉK" style="rounded=0;whiteSpace=wrap;html=1;" parent="1" vertex="1">
          <mxGeometry x="340" y="495" width="120" height="60" as="geometry" />
        </mxCell>
        <mxCell id="mSly-e9Xf92uoEyUnU41-29" value="POPCORN&lt;br&gt;ÁRUS" style="rounded=0;whiteSpace=wrap;html=1;" parent="1" vertex="1">
          <mxGeometry x="120" y="495" width="120" height="60" as="geometry" />
        </mxCell>
        <mxCell id="mSly-e9Xf92uoEyUnU41-30" value="" style="endArrow=classic;startArrow=classic;html=1;rounded=0;entryX=0;entryY=0.5;entryDx=0;entryDy=0;exitX=1;exitY=0.5;exitDx=0;exitDy=0;" parent="1" source="mSly-e9Xf92uoEyUnU41-29" target="mSly-e9Xf92uoEyUnU41-28" edge="1">
          <mxGeometry width="50" height="50" relative="1" as="geometry">
            <mxPoint x="210" y="905" as="sourcePoint" />
            <mxPoint x="260" y="855" as="targetPoint" />
          </mxGeometry>
        </mxCell>
        <mxCell id="mSly-e9Xf92uoEyUnU41-31" value="KALÓZ HAJÓ" style="rounded=0;whiteSpace=wrap;html=1;" parent="1" vertex="1">
          <mxGeometry x="570" y="495" width="120" height="60" as="geometry" />
        </mxCell>
        <mxCell id="mSly-e9Xf92uoEyUnU41-33" value="RUDOLF" style="rounded=0;whiteSpace=wrap;html=1;" parent="1" vertex="1">
          <mxGeometry x="340" y="615" width="120" height="60" as="geometry" />
        </mxCell>
        <mxCell id="mSly-e9Xf92uoEyUnU41-34" value="Dr SIMÁN PROF" style="rounded=0;whiteSpace=wrap;html=1;" parent="1" vertex="1">
          <mxGeometry x="120" y="760" width="120" height="60" as="geometry" />
        </mxCell>
        <mxCell id="mSly-e9Xf92uoEyUnU41-35" value="" style="endArrow=classic;startArrow=classic;html=1;rounded=0;entryX=0;entryY=0.5;entryDx=0;entryDy=0;exitX=1;exitY=0.5;exitDx=0;exitDy=0;" parent="1" source="mSly-e9Xf92uoEyUnU41-53" target="mSly-e9Xf92uoEyUnU41-33" edge="1">
          <mxGeometry width="50" height="50" relative="1" as="geometry">
            <mxPoint x="270" y="650" as="sourcePoint" />
            <mxPoint x="260" y="975" as="targetPoint" />
          </mxGeometry>
        </mxCell>
        <mxCell id="mSly-e9Xf92uoEyUnU41-36" value="Dr. CSOKIS ÁKOS" style="rounded=0;whiteSpace=wrap;html=1;" parent="1" vertex="1">
          <mxGeometry x="570" y="615" width="120" height="60" as="geometry" />
        </mxCell>
        <mxCell id="mSly-e9Xf92uoEyUnU41-37" value="" style="endArrow=classic;startArrow=classic;html=1;rounded=0;entryX=0;entryY=0.5;entryDx=0;entryDy=0;exitX=1;exitY=0.5;exitDx=0;exitDy=0;" parent="1" source="mSly-e9Xf92uoEyUnU41-33" target="mSly-e9Xf92uoEyUnU41-36" edge="1">
          <mxGeometry width="50" height="50" relative="1" as="geometry">
            <mxPoint x="210" y="995" as="sourcePoint" />
            <mxPoint x="260" y="945" as="targetPoint" />
          </mxGeometry>
        </mxCell>
        <mxCell id="mSly-e9Xf92uoEyUnU41-38" value="" style="endArrow=classic;startArrow=classic;html=1;rounded=0;entryX=0.5;entryY=1;entryDx=0;entryDy=0;" parent="1" source="mSly-e9Xf92uoEyUnU41-53" target="mSly-e9Xf92uoEyUnU41-29" edge="1">
          <mxGeometry width="50" height="50" relative="1" as="geometry">
            <mxPoint x="180" y="590" as="sourcePoint" />
            <mxPoint x="260" y="825" as="targetPoint" />
          </mxGeometry>
        </mxCell>
        <mxCell id="mSly-e9Xf92uoEyUnU41-39" value="" style="endArrow=classic;startArrow=classic;html=1;rounded=0;exitX=0.5;exitY=0;exitDx=0;exitDy=0;entryX=0.5;entryY=1;entryDx=0;entryDy=0;" parent="1" source="mSly-e9Xf92uoEyUnU41-36" target="mSly-e9Xf92uoEyUnU41-31" edge="1">
          <mxGeometry width="50" height="50" relative="1" as="geometry">
            <mxPoint x="410" y="625" as="sourcePoint" />
            <mxPoint x="410" y="565" as="targetPoint" />
            <Array as="points" />
          </mxGeometry>
        </mxCell>
        <mxCell id="mSly-e9Xf92uoEyUnU41-40" value="SHREK" style="rounded=0;whiteSpace=wrap;html=1;" parent="1" vertex="1">
          <mxGeometry x="340" y="760" width="120" height="60" as="geometry" />
        </mxCell>
        <mxCell id="mSly-e9Xf92uoEyUnU41-41" value="BARÁTNŐ" style="rounded=0;whiteSpace=wrap;html=1;" parent="1" vertex="1">
          <mxGeometry x="120" y="880" width="120" height="60" as="geometry" />
        </mxCell>
        <mxCell id="mSly-e9Xf92uoEyUnU41-43" value="ROSSZ CSONT&amp;nbsp;&lt;br&gt;JACK" style="rounded=0;whiteSpace=wrap;html=1;" parent="1" vertex="1">
          <mxGeometry x="570" y="760" width="120" height="60" as="geometry" />
        </mxCell>
        <mxCell id="mSly-e9Xf92uoEyUnU41-45" value="BOBA &quot;FAT&quot;" style="rounded=0;whiteSpace=wrap;html=1;" parent="1" vertex="1">
          <mxGeometry x="340" y="880" width="120" height="60" as="geometry" />
        </mxCell>
        <mxCell id="mSly-e9Xf92uoEyUnU41-46" value="LAJCSI&amp;nbsp;&lt;br&gt;KIRÁLY" style="rounded=0;whiteSpace=wrap;html=1;" parent="1" vertex="1">
          <mxGeometry x="120" y="970" width="120" height="60" as="geometry" />
        </mxCell>
        <mxCell id="mSly-e9Xf92uoEyUnU41-47" value="" style="endArrow=classic;startArrow=classic;html=1;rounded=0;entryX=0;entryY=0.5;entryDx=0;entryDy=0;exitX=1;exitY=0.5;exitDx=0;exitDy=0;" parent="1" source="mSly-e9Xf92uoEyUnU41-41" target="mSly-e9Xf92uoEyUnU41-45" edge="1">
          <mxGeometry width="50" height="50" relative="1" as="geometry">
            <mxPoint x="280" y="910" as="sourcePoint" />
            <mxPoint x="260" y="1240" as="targetPoint" />
          </mxGeometry>
        </mxCell>
        <mxCell id="mSly-e9Xf92uoEyUnU41-48" value="MICI MACKÓ" style="rounded=0;whiteSpace=wrap;html=1;" parent="1" vertex="1">
          <mxGeometry x="570" y="880" width="120" height="60" as="geometry" />
        </mxCell>
        <mxCell id="mSly-e9Xf92uoEyUnU41-50" value="" style="endArrow=classic;startArrow=classic;html=1;rounded=0;entryX=0.5;entryY=1;entryDx=0;entryDy=0;exitX=0.5;exitY=0;exitDx=0;exitDy=0;" parent="1" source="mSly-e9Xf92uoEyUnU41-41" target="mSly-e9Xf92uoEyUnU41-34" edge="1">
          <mxGeometry width="50" height="50" relative="1" as="geometry">
            <mxPoint x="200" y="870" as="sourcePoint" />
            <mxPoint x="180" y="840" as="targetPoint" />
          </mxGeometry>
        </mxCell>
        <mxCell id="mSly-e9Xf92uoEyUnU41-51" value="" style="endArrow=classic;startArrow=classic;html=1;rounded=0;exitX=0.5;exitY=0;exitDx=0;exitDy=0;entryX=0.5;entryY=1;entryDx=0;entryDy=0;" parent="1" source="mSly-e9Xf92uoEyUnU41-48" target="mSly-e9Xf92uoEyUnU41-43" edge="1">
          <mxGeometry width="50" height="50" relative="1" as="geometry">
            <mxPoint x="410" y="890" as="sourcePoint" />
            <mxPoint x="410" y="830" as="targetPoint" />
            <Array as="points" />
          </mxGeometry>
        </mxCell>
        <mxCell id="mSly-e9Xf92uoEyUnU41-52" value="DARTH VÖDÖR" style="rounded=0;whiteSpace=wrap;html=1;" parent="1" vertex="1">
          <mxGeometry x="340" y="970" width="120" height="60" as="geometry" />
        </mxCell>
        <mxCell id="mSly-e9Xf92uoEyUnU41-53" value="ERŐS SZÉL FÚJÁS" style="rounded=0;whiteSpace=wrap;html=1;" parent="1" vertex="1">
          <mxGeometry x="120" y="615" width="120" height="60" as="geometry" />
        </mxCell>
        <mxCell id="mSly-e9Xf92uoEyUnU41-55" value="ISMERŐSBE BOTLASSZ" style="rounded=0;whiteSpace=wrap;html=1;" parent="1" vertex="1">
          <mxGeometry x="570" y="140" width="120" height="60" as="geometry" />
        </mxCell>
        <mxCell id="mSly-e9Xf92uoEyUnU41-56" value="" style="endArrow=classic;startArrow=classic;html=1;rounded=0;exitX=1;exitY=0.5;exitDx=0;exitDy=0;" parent="1" source="mSly-e9Xf92uoEyUnU41-52" target="mSly-e9Xf92uoEyUnU41-11" edge="1">
          <mxGeometry width="50" height="50" relative="1" as="geometry">
            <mxPoint x="210" y="1350" as="sourcePoint" />
            <mxPoint x="510" y="1000" as="targetPoint" />
          </mxGeometry>
        </mxCell>
        <mxCell id="mSly-e9Xf92uoEyUnU41-57" value="KASTÉLY" style="rounded=0;whiteSpace=wrap;html=1;" parent="1" vertex="1">
          <mxGeometry x="340" y="1090" width="120" height="60" as="geometry" />
        </mxCell>
        <mxCell id="mSly-e9Xf92uoEyUnU41-58" value="JABBA A HUTT" style="rounded=0;whiteSpace=wrap;html=1;" parent="1" vertex="1">
          <mxGeometry x="120" y="1090" width="120" height="60" as="geometry" />
        </mxCell>
        <mxCell id="mSly-e9Xf92uoEyUnU41-59" value="" style="endArrow=classic;startArrow=classic;html=1;rounded=0;entryX=0;entryY=0.5;entryDx=0;entryDy=0;exitX=1;exitY=0.5;exitDx=0;exitDy=0;" parent="1" source="mSly-e9Xf92uoEyUnU41-58" target="mSly-e9Xf92uoEyUnU41-57" edge="1">
          <mxGeometry width="50" height="50" relative="1" as="geometry">
            <mxPoint x="210" y="1500" as="sourcePoint" />
            <mxPoint x="260" y="1450" as="targetPoint" />
          </mxGeometry>
        </mxCell>
        <mxCell id="mSly-e9Xf92uoEyUnU41-60" value="BLAHA LUJZA TÉR" style="rounded=0;whiteSpace=wrap;html=1;" parent="1" vertex="1">
          <mxGeometry x="570" y="1090" width="120" height="60" as="geometry" />
        </mxCell>
        <mxCell id="mSly-e9Xf92uoEyUnU41-61" value="" style="endArrow=classic;startArrow=classic;html=1;rounded=0;entryX=0;entryY=0.5;entryDx=0;entryDy=0;exitX=1;exitY=0.5;exitDx=0;exitDy=0;" parent="1" source="mSly-e9Xf92uoEyUnU41-57" target="mSly-e9Xf92uoEyUnU41-60" edge="1">
          <mxGeometry width="50" height="50" relative="1" as="geometry">
            <mxPoint x="210" y="1470" as="sourcePoint" />
            <mxPoint x="260" y="1420" as="targetPoint" />
          </mxGeometry>
        </mxCell>
        <mxCell id="mSly-e9Xf92uoEyUnU41-62" value="" style="endArrow=classic;startArrow=classic;html=1;rounded=0;entryX=0.5;entryY=1;entryDx=0;entryDy=0;" parent="1" source="mSly-e9Xf92uoEyUnU41-58" target="mSly-e9Xf92uoEyUnU41-46" edge="1">
          <mxGeometry width="50" height="50" relative="1" as="geometry">
            <mxPoint x="210" y="1350" as="sourcePoint" />
            <mxPoint x="200" y="1050" as="targetPoint" />
          </mxGeometry>
        </mxCell>
        <mxCell id="mSly-e9Xf92uoEyUnU41-63" value="" style="endArrow=classic;startArrow=classic;html=1;rounded=0;exitX=0.5;exitY=0;exitDx=0;exitDy=0;entryX=0.5;entryY=1;entryDx=0;entryDy=0;" parent="1" source="mSly-e9Xf92uoEyUnU41-60" target="mSly-e9Xf92uoEyUnU41-11" edge="1">
          <mxGeometry width="50" height="50" relative="1" as="geometry">
            <mxPoint x="410" y="1100" as="sourcePoint" />
            <mxPoint x="590" y="1050" as="targetPoint" />
            <Array as="points" />
          </mxGeometry>
        </mxCell>
        <mxCell id="mSly-e9Xf92uoEyUnU41-65" value="" style="endArrow=classic;startArrow=classic;html=1;rounded=0;entryX=0.5;entryY=1;entryDx=0;entryDy=0;" parent="1" source="mSly-e9Xf92uoEyUnU41-46" target="mSly-e9Xf92uoEyUnU41-41" edge="1">
          <mxGeometry width="50" height="50" relative="1" as="geometry">
            <mxPoint x="170" y="960" as="sourcePoint" />
            <mxPoint x="190" y="950" as="targetPoint" />
          </mxGeometry>
        </mxCell>
        <mxCell id="mSly-e9Xf92uoEyUnU41-66" value="" style="endArrow=classic;startArrow=classic;html=1;rounded=0;entryX=0.5;entryY=1;entryDx=0;entryDy=0;" parent="1" source="mSly-e9Xf92uoEyUnU41-52" target="mSly-e9Xf92uoEyUnU41-45" edge="1">
          <mxGeometry width="50" height="50" relative="1" as="geometry">
            <mxPoint x="190" y="980" as="sourcePoint" />
            <mxPoint x="190" y="950" as="targetPoint" />
          </mxGeometry>
        </mxCell>
        <mxCell id="mSly-e9Xf92uoEyUnU41-67" value="" style="endArrow=classic;startArrow=classic;html=1;rounded=0;exitX=0.5;exitY=0;exitDx=0;exitDy=0;entryX=0.5;entryY=1;entryDx=0;entryDy=0;" parent="1" source="mSly-e9Xf92uoEyUnU41-16" target="mSly-e9Xf92uoEyUnU41-8" edge="1">
          <mxGeometry width="50" height="50" relative="1" as="geometry">
            <mxPoint x="410" y="150" as="sourcePoint" />
            <mxPoint x="410" y="90" as="targetPoint" />
            <Array as="points" />
          </mxGeometry>
        </mxCell>
        <mxCell id="mSly-e9Xf92uoEyUnU41-68" value="" style="endArrow=classic;startArrow=classic;html=1;rounded=0;exitX=0.5;exitY=0;exitDx=0;exitDy=0;entryX=0.5;entryY=1;entryDx=0;entryDy=0;" parent="1" source="mSly-e9Xf92uoEyUnU41-21" target="mSly-e9Xf92uoEyUnU41-16" edge="1">
          <mxGeometry width="50" height="50" relative="1" as="geometry">
            <mxPoint x="410" y="270" as="sourcePoint" />
            <mxPoint x="400" y="330" as="targetPoint" />
            <Array as="points" />
          </mxGeometry>
        </mxCell>
        <mxCell id="mSly-e9Xf92uoEyUnU41-69" value="" style="endArrow=classic;startArrow=classic;html=1;rounded=0;entryX=0.5;entryY=0;entryDx=0;entryDy=0;exitX=0.5;exitY=1;exitDx=0;exitDy=0;" parent="1" source="mSly-e9Xf92uoEyUnU41-22" target="mSly-e9Xf92uoEyUnU41-29" edge="1">
          <mxGeometry width="50" height="50" relative="1" as="geometry">
            <mxPoint x="190" y="390" as="sourcePoint" />
            <mxPoint x="190" y="330" as="targetPoint" />
          </mxGeometry>
        </mxCell>
        <mxCell id="mSly-e9Xf92uoEyUnU41-70" value="" style="endArrow=classic;startArrow=classic;html=1;rounded=0;exitX=0.5;exitY=1;exitDx=0;exitDy=0;entryX=0.5;entryY=0;entryDx=0;entryDy=0;" parent="1" source="mSly-e9Xf92uoEyUnU41-24" target="mSly-e9Xf92uoEyUnU41-31" edge="1">
          <mxGeometry width="50" height="50" relative="1" as="geometry">
            <mxPoint x="640" y="390" as="sourcePoint" />
            <mxPoint x="640" y="330" as="targetPoint" />
            <Array as="points" />
          </mxGeometry>
        </mxCell>
        <mxCell id="mSly-e9Xf92uoEyUnU41-71" value="" style="endArrow=classic;startArrow=classic;html=1;rounded=0;exitX=0.5;exitY=0;exitDx=0;exitDy=0;entryX=0.5;entryY=1;entryDx=0;entryDy=0;" parent="1" source="mSly-e9Xf92uoEyUnU41-28" target="mSly-e9Xf92uoEyUnU41-21" edge="1">
          <mxGeometry width="50" height="50" relative="1" as="geometry">
            <mxPoint x="410" y="390" as="sourcePoint" />
            <mxPoint x="410" y="340" as="targetPoint" />
            <Array as="points" />
          </mxGeometry>
        </mxCell>
        <mxCell id="mSly-e9Xf92uoEyUnU41-72" value="" style="endArrow=classic;startArrow=classic;html=1;rounded=0;entryX=0.5;entryY=1;entryDx=0;entryDy=0;exitX=0.5;exitY=0;exitDx=0;exitDy=0;" parent="1" source="mSly-e9Xf92uoEyUnU41-17" target="mSly-e9Xf92uoEyUnU41-9" edge="1">
          <mxGeometry width="50" height="50" relative="1" as="geometry">
            <mxPoint x="200" y="400" as="sourcePoint" />
            <mxPoint x="200" y="340" as="targetPoint" />
          </mxGeometry>
        </mxCell>
        <mxCell id="mSly-e9Xf92uoEyUnU41-73" value="" style="endArrow=classic;startArrow=classic;html=1;rounded=0;exitX=0.5;exitY=1;exitDx=0;exitDy=0;entryX=0.5;entryY=0;entryDx=0;entryDy=0;" parent="1" source="mSly-e9Xf92uoEyUnU41-28" target="mSly-e9Xf92uoEyUnU41-33" edge="1">
          <mxGeometry width="50" height="50" relative="1" as="geometry">
            <mxPoint x="650" y="400" as="sourcePoint" />
            <mxPoint x="650" y="340" as="targetPoint" />
            <Array as="points" />
          </mxGeometry>
        </mxCell>
        <mxCell id="mSly-e9Xf92uoEyUnU41-74" value="" style="endArrow=classic;startArrow=classic;html=1;rounded=0;entryX=0.5;entryY=1;entryDx=0;entryDy=0;" parent="1" source="mSly-e9Xf92uoEyUnU41-19" target="mSly-e9Xf92uoEyUnU41-55" edge="1">
          <mxGeometry width="50" height="50" relative="1" as="geometry">
            <mxPoint x="420" y="400" as="sourcePoint" />
            <mxPoint x="620" y="220" as="targetPoint" />
            <Array as="points" />
          </mxGeometry>
        </mxCell>
        <mxCell id="mSly-e9Xf92uoEyUnU41-75" value="" style="endArrow=classic;startArrow=classic;html=1;rounded=0;exitX=0.5;exitY=1;exitDx=0;exitDy=0;entryX=0.5;entryY=0.017;entryDx=0;entryDy=0;entryPerimeter=0;" parent="1" source="mSly-e9Xf92uoEyUnU41-53" target="mSly-e9Xf92uoEyUnU41-34" edge="1">
          <mxGeometry width="50" height="50" relative="1" as="geometry">
            <mxPoint x="180" y="690" as="sourcePoint" />
            <mxPoint x="178" y="761" as="targetPoint" />
          </mxGeometry>
        </mxCell>
        <mxCell id="mSly-e9Xf92uoEyUnU41-76" value="" style="endArrow=classic;startArrow=classic;html=1;rounded=0;exitX=0.5;exitY=1;exitDx=0;exitDy=0;entryX=0.5;entryY=0;entryDx=0;entryDy=0;" parent="1" source="mSly-e9Xf92uoEyUnU41-36" target="mSly-e9Xf92uoEyUnU41-43" edge="1">
          <mxGeometry width="50" height="50" relative="1" as="geometry">
            <mxPoint x="660" y="410" as="sourcePoint" />
            <mxPoint x="660" y="350" as="targetPoint" />
            <Array as="points" />
          </mxGeometry>
        </mxCell>
        <mxCell id="mSly-e9Xf92uoEyUnU41-77" value="" style="endArrow=classic;startArrow=classic;html=1;rounded=0;exitX=0.5;exitY=1;exitDx=0;exitDy=0;entryX=0.5;entryY=0;entryDx=0;entryDy=0;" parent="1" source="mSly-e9Xf92uoEyUnU41-33" target="mSly-e9Xf92uoEyUnU41-40" edge="1">
          <mxGeometry width="50" height="50" relative="1" as="geometry">
            <mxPoint x="430" y="410" as="sourcePoint" />
            <mxPoint x="430" y="350" as="targetPoint" />
            <Array as="points" />
          </mxGeometry>
        </mxCell>
        <mxCell id="mSly-e9Xf92uoEyUnU41-78" value="" style="endArrow=classic;startArrow=classic;html=1;rounded=0;entryX=0.5;entryY=1;entryDx=0;entryDy=0;exitX=0.5;exitY=0;exitDx=0;exitDy=0;" parent="1" source="mSly-e9Xf92uoEyUnU41-57" target="mSly-e9Xf92uoEyUnU41-52" edge="1">
          <mxGeometry width="50" height="50" relative="1" as="geometry">
            <mxPoint x="190" y="685" as="sourcePoint" />
            <mxPoint x="190" y="770" as="targetPoint" />
          </mxGeometry>
        </mxCell>
        <mxCell id="mSly-e9Xf92uoEyUnU41-79" value="" style="endArrow=classic;startArrow=classic;html=1;rounded=0;exitX=0.5;exitY=0;exitDx=0;exitDy=0;entryX=0.5;entryY=1;entryDx=0;entryDy=0;" parent="1" source="mSly-e9Xf92uoEyUnU41-45" target="mSly-e9Xf92uoEyUnU41-40" edge="1">
          <mxGeometry width="50" height="50" relative="1" as="geometry">
            <mxPoint x="640" y="685" as="sourcePoint" />
            <mxPoint x="640" y="770" as="targetPoint" />
            <Array as="points" />
          </mxGeometry>
        </mxCell>
        <mxCell id="mSly-e9Xf92uoEyUnU41-80" value="" style="endArrow=classic;startArrow=classic;html=1;rounded=0;entryX=0.5;entryY=1;entryDx=0;entryDy=0;exitX=0.5;exitY=0;exitDx=0;exitDy=0;" parent="1" source="mSly-e9Xf92uoEyUnU41-11" target="mSly-e9Xf92uoEyUnU41-48" edge="1">
          <mxGeometry width="50" height="50" relative="1" as="geometry">
            <mxPoint x="590" y="960" as="sourcePoint" />
            <mxPoint x="410" y="770" as="targetPoint" />
            <Array as="points" />
          </mxGeometry>
        </mxCell>
      </root>
    </mxGraphModel>
  </diagram>
</mxfile>
